<!DOCTYPE svg PUBLIC "-//W3C//DTD SVG 1.1//EN" "http://www.w3.org/Graphics/SVG/1.1/DTD/svg11.dtd">

<svg 
        width="100%" 
        height="100%" 
        viewBox="0 0 1200 281" 
        version="1.1" 
        xmlns="http://www.w3.org/2000/svg" 
        xmlns:xlink="http://www.w3.org/1999/xlink" 
        xml:space="preserve" 
        xmlns:serif="http://www.serif.com/" 
        style="fill-rule:evenodd;clip-rule:evenodd;stroke-linejoin:round;stroke-miterlimit:2;"
    >
        <path 
            d="M578.9,233.9C593.9,230.5 605.6,218.5 608.9,203.2C609.6,199.7 610,181.4 610,148.8L610,99.8L607.8,100.3C606.5,100.6 600.7,101.4 594.8,102.1L584,103.4L584,174L581.3,175.7C577.4,178.2 565.8,178.8 562.4,176.5C557,173 556.6,170.5 556.2,133.8L555.8,100.1L551.2,100.7C548.6,101 542.9,101.8 538.5,102.4L530.5,103.5L530.2,135C530.1,153.4 530.4,168.7 531,171.9C533.2,183.9 540.1,193.3 549.9,197.9C554.8,200.2 556.7,200.5 565,200.4C571,200.3 576.1,199.6 578.9,198.6L583.3,197L582.7,200.7C581.9,205.4 577.7,209.7 572.5,211.1C566.6,212.7 550.7,211.6 543.6,209.1C540.3,207.9 537.6,207.1 537.4,207.2C537.1,207.5 531,228.6 531,229.3C531,229.5 532.7,230 534.8,230.3C536.8,230.7 541.7,231.8 545.5,232.9C553.4,235.1 571.3,235.7 578.9,233.9ZM665,199.9C674.5,198.4 682.3,194.5 687.4,188.9C692.2,183.6 694,178.7 694,170.8C694,154.6 687,146.8 664.5,138.1C654.1,134.1 652,132.6 652,129C652,124.5 655.1,123 664,123C669.5,123 673.3,123.7 678.5,125.6C682.4,127 686.2,128.4 687,128.6C688.2,129 689.1,126.6 691.3,118C692.9,111.8 694,106.7 693.8,106.6C693.6,106.5 691.5,105.9 689,105.2C686.5,104.5 682,103.2 679,102.3C670.5,99.7 652.1,100 645,102.8C633.2,107.4 627,115.6 626.2,127.4C625.7,136.4 627,141.5 631.5,146.7C635.6,151.5 641.4,155.1 650.6,158.6C663.4,163.4 668,166.7 668,170.9C668,176.2 664.6,178 655.3,178C649.2,178 640.5,175.7 630.9,171.6C629.7,171.1 628.9,172.8 626.7,180.5C625.2,185.7 624,190.6 624,191.4C624,193.7 637,198.8 647,200.3C652,201.1 658.6,201 665,199.9ZM358,199L358,156L368.3,156C373.9,156 380.5,155.5 382.9,154.9C398.7,151.3 412.1,137.5 415,121.9C419.2,100 409.8,79.9 392.2,72.8C386.9,70.7 385.1,70.5 366.5,70.5C355.5,70.5 343,70.9 338.8,71.3L331,72.2L331,199L358,199ZM456,199L456,126.9L460.3,125C470.6,120.4 480.2,121.7 483.7,128.2C485.3,131.2 485.5,134.9 485.8,165.3L486.1,199L512,199L512,164.5C512,129 511.5,122.9 507.8,115.7C501,102.3 483.3,96.7 464.2,102C460.3,103.1 456.8,104 456.5,104C456.2,104 456,94.8 456,83.5L456,63L453.3,63C450.6,63 439.9,64.4 433.3,65.5L430,66.1L430,199L456,199ZM358,133.2L358,94.1L361.6,93.4C366.8,92.4 376.8,93.7 380.3,95.8C385.1,98.5 387.4,104.2 387.5,113C387.5,121.5 385.4,127 380.7,130.4C378.5,132 376,132.5 368,132.8L358,133.2Z" 
            style="fill:#eee;fill-rule:nonzero;"
        />
        <path 
            d="M188.5,266.5C207.6,257.2 215.8,234.4 206.8,215.3C202.3,205.8 190.4,196.3 180.8,194.5L177,193.8L177,31L253,31L253,193.7L249.2,194.4C243.2,195.3 233.6,200.7 229,205.6C226.7,208.1 223.6,212.7 222.2,215.8C219.8,220.8 219.5,222.7 219.5,232C219.5,241.5 219.8,243 222.3,248.3C226,255.7 233.3,263 240.7,266.7C246,269.2 247.5,269.5 257,269.5C266.6,269.5 268,269.2 273.5,266.6C305.8,250.7 301,203.4 266.1,194.5L261.5,193.4L261.5,31.5L271.3,31.2L281,30.9L281,15L76,15L76,31L89,31C98.4,31 102,31.3 102,32.2C102,33.2 89.7,71.8 59,167.5L54.2,182.5L44.9,183.1C37.1,183.6 34.5,184.2 29.5,186.7C21.6,190.8 15.8,196.7 11.8,204.8C8.8,210.9 8.5,212.3 8.5,221C8.5,229.6 8.8,231.1 11.7,237.2C23.5,262.2 55.7,267.2 74.5,246.8C88.9,231.3 88,207.4 72.6,193.2C70.2,191 66.9,188.5 65.2,187.6L62.1,186L64,180.3C65.6,175.4 83.2,120.6 105.9,49.5L111.7,31.5L139.8,31.2L168,31L168,193.7L164.2,194.4C153.5,196.1 142.2,205.1 137.2,216C133.8,223.3 133,235.6 135.5,243.2C139.2,254.7 148.1,264 159.2,268.1C167.4,271.1 180.6,270.4 188.5,266.5Z" 
            style="fill:#eee;fill-rule:nonzero;"
        />
        <path 
            d="M894.5,197.1C897.2,195.9 900.9,193.8 902.7,192.4C905.9,189.9 906,189.9 906,192C906,193.2 907.3,195.5 909,197.1C911.5,199.7 912.6,200.1 916.2,199.8C920.5,199.5 920.5,199.5 920.8,195.3C921,192 920.8,191 919.6,191C916.5,191 916,187.2 916,164.4C916,136.9 915,129.8 910.6,125.4C906.4,121.2 901.8,119.9 889,119.3C877.5,118.7 868.4,120.3 862.4,124.1C859.1,126.1 854.4,134.1 855.3,136.3C855.5,136.9 857.8,138.3 860.4,139.2C864.4,140.7 865,140.7 865,139.4C865,136.3 868.3,131.8 871.5,130.4C873.7,129.5 878.6,129 885.2,129C901.5,129 904.5,131.5 903.8,144.8L903.5,150.5L889.8,151.1C869,152.1 858.8,155.9 854.3,164.4C851.9,168.8 851.9,182 854.3,188.2C856.4,193.6 859.4,196.1 866.5,198.4C873.7,200.7 887.9,200 894.5,197.1ZM1114.1,197.1C1120.4,194.7 1124.2,191.2 1126.4,185.8C1129.1,179.5 1128.6,177.5 1124.1,176.2C1122,175.5 1120,175 1119.8,175C1119.5,175 1118.7,177 1118,179.5C1116.4,185.2 1112.6,188.5 1106,189.9C1094.6,192.4 1084.2,190.4 1079.9,185C1076.8,181.1 1074,171.8 1074,165.3L1074,161L1129.2,161L1128.9,150.2C1128.5,140.7 1128.1,138.8 1125.5,133.5C1120.6,123.6 1111.3,119 1096.5,119C1073.6,119 1063.6,129.6 1062.3,155C1061.1,178.1 1067.5,193.4 1079.9,197.4C1087.5,199.8 1088.1,199.9 1098.5,199.6C1105.7,199.3 1110.1,198.7 1114.1,197.1ZM988.2,170.3C988.6,144.5 988.7,142.2 990.8,137.7C993.7,131.1 998.4,129.1 1010.3,129C1020.6,129 1024.6,130.5 1027.5,135.3C1029.3,138.2 1029.5,140.8 1029.8,168.3L1030.1,198L1042.2,198L1041.7,168.3C1041.5,149.3 1040.9,137.2 1040.2,134.9C1038.2,128.8 1034.7,124.6 1029.5,122C1025.2,119.8 1023.2,119.5 1014.5,119.5C1005.6,119.5 1003.9,119.8 998.8,122.3C995.7,123.8 991.8,126.7 990.1,128.6L987,132.1L987,128.8C987,122.1 986.2,121 981.4,121L977,121L977,198L987.8,198L988.2,170.3ZM1161.2,170.3C1161.5,142.6 1161.5,142.5 1163.9,139.2C1167.2,134.9 1174.1,131.7 1181.2,131.2L1187,130.8L1187,118.7L1182,119.3C1175.3,120.1 1170.4,122.6 1165.3,127.7L1161,131.9L1161,128.1C1161,121.7 1160.4,121 1154.9,121L1150,121L1150,198L1160.9,198L1161.2,170.3ZM814,172C814,142.9 814.3,141.4 820.4,136.3C824.7,132.8 830,131 835.9,131L840,131L840,118.7L835.1,119.3C828.6,120.1 824.6,122.2 818.8,127.8L814,132.4L814,121L803,121L803,198L814,198L814,172ZM754,198L754,99L788,99L788,88L706,88L706,99L740,99L740,198L754,198ZM952,198L952,121L940,121L940,198L952,198ZM873.1,190C870.7,189.5 868.2,188.6 867.4,187.9C863.8,184.9 863.2,171.4 866.5,166.4C868.4,163.4 875.9,161.2 886.4,160.5C890.9,160.2 896.6,159.7 899.3,159.4L904,158.9L904,169.4C904,179.2 903.8,180 901.4,183C899.9,184.7 897,187 894.9,188C890.5,190.3 879.4,191.3 873.1,190ZM1074,151C1074,147.7 1076.2,138.6 1077.6,135.8C1080,131.1 1086.2,128.7 1096,128.7C1110.6,128.7 1115.4,133 1116.7,147.3L1117.3,153L1095.6,153C1074.8,153 1074,152.9 1074,151ZM952.8,103.7C953.8,101.6 953.9,100.2 953,97.6C951.8,93.9 950.4,93 946.1,93C941.5,93 939.5,95.2 939.5,100.5C939.5,106 940.8,107.1 947,106.8C950.8,106.5 951.7,106.1 952.8,103.7Z" 
            style="fill:#eee;fill-rule:nonzero;"/>
    </svg>