<?xml version="1.0" standalone="no"?>
<svg viewBox="0 0 200 200" xmlns="http://www.w3.org/2000/svg">
  <path fill="var(--secondary_color-2)" d="M40.7,-51C55.8,-45.1,73.1,-37.2,81.1,-23.7C89,-10.2,87.7,8.9,80.9,25.1C74,41.3,61.5,54.4,47.1,61.6C32.7,68.8,16.4,70,3,65.8C-10.3,61.6,-20.6,52.1,-30.2,43.4C-39.8,34.6,-48.7,26.7,-55,15.9C-61.3,5,-64.9,-8.6,-61,-19.5C-57,-30.4,-45.4,-38.4,-33.9,-45.5C-22.5,-52.6,-11.3,-58.6,0.8,-59.7C12.8,-60.8,25.7,-56.9,40.7,-51Z" transform="translate(100 100)" />
</svg>
