<?xml version="1.0" standalone="no"?>
<svg viewBox="0 0 200 200" xmlns="http://www.w3.org/2000/svg">
  <path fill="var(--secondary_color-1)" d="M34,-43.9C46.2,-37.9,59.7,-30.9,67.7,-19C75.7,-7.1,78.2,9.5,73.3,23.6C68.4,37.6,56.2,49.1,42.7,53.9C29.3,58.7,14.7,56.9,-2,59.7C-18.7,62.5,-37.4,69.8,-51.1,65.1C-64.8,60.3,-73.5,43.5,-73.6,27.6C-73.7,11.7,-65.2,-3.4,-57.4,-15.9C-49.5,-28.4,-42.3,-38.4,-32.9,-45.3C-23.4,-52.2,-11.7,-55.9,-0.4,-55.4C10.9,-54.8,21.8,-49.9,34,-43.9Z" transform="translate(100 100)" />
</svg>
